<?xml version="1.0" encoding="UTF-8"?>
<svg width="300" height="300" version="1.1" viewBox="0 0 1087.4 922.52" xmlns="http://www.w3.org/2000/svg">
 <defs>
  <clipPath id="d">
   <path d="M 0,841.89 H 1190.55 V 0 H 0 Z"/>
  </clipPath>
  <clipPath id="c">
   <path d="m631.3 292.58h149.98v-149.98h-149.98z"/>
  </clipPath>
 </defs>
 <g transform="matrix(1.3333 0 0 -1.3333 0 1122.5) scale(5.2) translate(-628 -121)">
  <g clip-path="url(#d)">
   <g clip-path="url(#c)" opacity=".7">
    <g transform="translate(781.28 165.4)">
     <path d="m0 0c0-12.588-10.206-22.791-22.792-22.791h-104.4c-12.586 0-22.791 10.203-22.791 22.791v104.4c0 12.588 10.205 22.791 22.791 22.791h104.4c12.586 0 22.792-10.203 22.792-22.791z" fill="#e54a55"/>
    </g>
   </g>
   <g transform="translate(698.93 223.2)">
    <path d="m0 0c3.452 0.131 6.328 1.373 8.626 3.723 1.113 1.664 1.826 3.373 2.143 5.129 0.19 1.752 0.288 3.222 0.288 4.419 0 5.17-1.325 10.387-3.967 15.639-1.243 2.518-2.876 4.572-4.901 6.151-2.068 1.49-4.443 2.285-7.127 2.371-3.555-0.086-6.505-1.518-8.864-4.295-1.988-2.908-2.938-6.155-2.847-9.744 0-4.741 1.383-9.672 4.159-14.803 1.346-2.391 3.075-4.42 5.205-6.084 2.122-1.674 4.551-2.506 7.285-2.506m18.28-38.436c0 3.331-1.086 6.227-3.255 8.7-2.296 2.341-5.885 5.222-10.772 8.638-0.838 0.086-1.819 0.125-2.944 0.125-0.667 0.082-2.381 0-5.135-0.252-2.713-0.384-5.492-1.002-8.333-1.855-0.667-0.258-1.603-0.643-2.815-1.156-1.211-0.555-2.441-1.342-3.697-2.366-1.212-1.064-2.232-2.388-3.066-3.966-0.962-1.666-1.437-3.67-1.437-6.014 0-4.609 2.08-8.402 6.255-11.389 3.97-2.986 9.395-4.521 16.285-4.607 6.181 0.086 10.898 1.453 14.151 4.098 3.174 2.603 4.763 5.949 4.763 10.044m-5.064 75.483c0.826-0.514 1.751-1.256 2.779-2.238 0.988-1.024 1.954-2.288 2.9-3.776 0.907-1.408 1.711-3.066 2.414-4.99 0.577-1.916 0.864-4.156 0.864-6.715-0.074-4.691-1.113-8.441-3.111-11.258-0.972-1.365-2.006-2.623-3.102-3.773-1.211-1.149-2.498-2.324-3.863-3.52-0.785-0.808-1.504-1.724-2.169-2.75-0.78-1.066-1.17-2.298-1.17-3.707 0-1.373 0.401-2.496 1.201-3.392 0.68-0.854 1.343-1.602 1.984-2.242l4.451-3.643c2.761-2.264 5.186-4.75 7.268-7.482 1.963-2.774 2.984-6.397 3.072-10.872 0-6.355-2.808-11.98-8.421-16.89-5.812-5.078-14.211-7.695-25.184-7.867-9.186 0.084-16.041 2.045-20.572 5.871-4.567 3.578-6.856 7.853-6.856 12.834 0 2.424 0.741 5.131 2.235 8.111 1.438 2.975 4.05 5.594 7.835 7.85 4.244 2.42 8.707 4.045 13.382 4.853 4.63 0.678 8.472 1.063 11.533 1.147-0.945 1.244-1.79 2.572-2.53 3.986-0.863 1.371-1.291 3.027-1.291 4.949 0 1.16 0.16 2.129 0.489 2.895 0.289 0.82 0.559 1.564 0.802 2.254-1.488-0.17-2.897-0.258-4.21-0.258-6.984 0.088-12.303 2.285-15.965 6.59-3.835 4.011-5.751 8.679-5.751 14.007 0 6.442 2.713 12.28 8.145 17.528 3.725 3.064 7.6 5.066 11.616 6.012 3.981 0.808 7.708 1.214 11.185 1.214h26.222l-8.096-4.728z" fill="#ffeed7"/>
   </g>
   <g transform="translate(763.85 250.65)">
    <path d="m0 0h-13.758v13.762h-6.667v-13.762h-13.758v-6.666h13.758v-13.756h6.667v13.756h13.758z" fill="#ffeed7"/>
   </g>
  </g>
 </g>
</svg>
