<?xml version="1.0" encoding="UTF-8"?>
<svg viewBox="0 0 199.98 199.98" xmlns="http://www.w3.org/2000/svg">
 <defs>
  <style>.cls-1{fill:none;}.cls-2{clip-path:url(#a);}.cls-3{opacity:0.6;}.cls-4{fill:#840d16;}.cls-5{fill:#ffeed7;}</style>
  <clipPath id="a" transform="translate(0)">
   <rect class="cls-1" width="199.98" height="199.98"/>
  </clipPath>
 </defs>
 <g data-name="Layer 2">
  <g class="cls-2">
   <g class="cls-3">
    <path class="cls-4" transform="translate(0)" d="M200,169.59A30.39,30.39,0,0,1,169.59,200H30.39A30.39,30.39,0,0,1,0,169.59V30.39A30.39,30.39,0,0,1,30.39,0h139.2A30.39,30.39,0,0,1,200,30.39Z"/>
   </g>
  </g>
  <path class="cls-5" transform="translate(0)" d="M97.73,37A65.32,65.32,0,0,0,71.51,162.16a57.5,57.5,0,0,1,1.13-15c1.26-5.31,8.41-35.6,8.41-35.6A25,25,0,0,1,79,101.23c0-9.67,5.62-16.91,12.61-16.91,5.93,0,8.8,4.46,8.8,9.8,0,6-3.81,14.91-5.77,23.18-1.64,6.93,3.48,12.58,10.3,12.58,12.38,0,20.71-15.89,20.71-34.73,0-14.31-9.64-25-27.18-25-19.81,0-32.15,14.77-32.15,31.27,0,5.69,1.68,9.71,4.3,12.81,1.21,1.43,1.38,2,.94,3.64-.31,1.21-1,4.1-1.33,5.24a2.25,2.25,0,0,1-3.27,1.64C57.8,121,53.55,111,53.55,99.79,53.55,81.24,69.2,59,100.24,59c24.93,0,41.36,18,41.36,37.42,0,25.62-14.25,44.77-35.25,44.77-7.05,0-13.69-3.81-16-8.14,0,0-3.8,15-4.6,18a54.85,54.85,0,0,1-6.58,14A65.32,65.32,0,1,0,97.73,37"/>
 </g>
</svg>
