<?xml version="1.0" encoding="utf-8"?>
<!-- Generator: Adobe Illustrator 16.0.5, SVG Export Plug-In . SVG Version: 6.00 Build 0)  -->
<!DOCTYPE svg PUBLIC "-//W3C//DTD SVG 1.1//EN" "http://www.w3.org/Graphics/SVG/1.1/DTD/svg11.dtd">
<svg version="1.1" id="Layer_1" xmlns="http://www.w3.org/2000/svg" xmlns:xlink="http://www.w3.org/1999/xlink" x="0px" y="0px"
	 width="31.779px" height="50px" viewBox="0 0 31.779 50" enable-background="new 0 0 31.779 50" xml:space="preserve">
<path fill="#333333" d="M0,47.529c0,1.322,1.047,2.408,2.338,2.408h27.101c1.287,0,2.336-1.086,2.336-2.408V15.844
	c0-0.024,0.014-0.048,0-0.06c-0.014-0.481-0.168-0.928-0.435-1.301c-0.036-0.06-0.083-0.121-0.145-0.168c0,0,0-0.011-0.013-0.011
	c-0.313-0.314-0.76-0.506-1.229-0.506c-0.879,0-1.623,0.65-1.795,1.493v30.408c-0.131,0.289-0.385,0.52-0.697,0.627H4.348
	c-0.338-0.108-0.613-0.373-0.734-0.711v-30.24c-0.108-0.893-0.866-1.566-1.782-1.566c-0.602,0-1.119,0.29-1.444,0.735
	c-0.036,0.048-0.061,0.096-0.086,0.145c-0.084,0.132-0.145,0.277-0.191,0.433c-0.025,0.072-0.037,0.145-0.063,0.217c0,0,0,0,0,0.012
	c-0.035,0.156-0.047,0.313-0.047,0.481L0,47.529L0,47.529z"/>
<path fill="#DC3545" d="M20.802,30.102c0.435,0.205,0.649,0.371,0.649,0.371s-0.277-0.014-0.71,0.014
	c-0.445,0.023-1.071,0.084-1.71,0.287c-0.637,0.205-1.228,0.568-1.564,1.17l-0.05,0.072v0.012l-0.011,0.022l-0.038,0.085
	l-0.154,0.322c-0.097,0.216-0.23,0.458-0.253,0.613c-0.098,0.328-0.204,0.761-0.289,1.242c-0.106,0.481-0.206,1.035-0.444,1.613
	c-0.218,0.578-0.64,1.096-1.085,1.467c-0.445,0.353-0.964,0.642-1.35,0.762c-0.396,0.168-0.784,0.313-1.145,0.434
	c-0.771,0.229-1.419,0.373-1.878,0.396c-0.458,0.051-0.734,0.021-0.734,0.021s0.229-0.131,0.578-0.408
	c0.374-0.228,0.854-0.636,1.446-1.035c0.289-0.237,0.613-0.494,0.963-0.748c0.397-0.25,0.589-0.502,0.867-0.758
	c0.217-0.279,0.386-0.552,0.494-0.904c0.121-0.346,0.204-0.793,0.289-1.299c0.108-0.506,0.229-1.06,0.493-1.664
	c0.12-0.313,0.253-0.479,0.373-0.698l0.193-0.3l0.048-0.071l0.073-0.108l0.036-0.051l0.144-0.169
	c0.385-0.455,0.903-0.769,1.397-0.95c0.493-0.203,1-0.24,1.42-0.229C19.729,29.632,20.382,29.895,20.802,30.102z"/>
<path fill="#DC3545" d="M4.205,21.686l0.013,23.855c0.061,0.07,0.133,0.133,0.218,0.182h22.884c0.097-0.049,0.18-0.131,0.24-0.229
	V21.686H4.205z M19.959,38.928c-3.771,3.357-8.782,3.879-11.202,1.168c-2.42-2.709-1.336-7.637,2.434-10.998
	c3.758-3.359,8.768-3.876,11.188-1.168C24.802,30.639,23.717,35.564,19.959,38.928z"/>
<path fill="#333333" d="M7.701,9.221c0,0,0.389,0.773,0.973,1.932c0.296,0.577,0.636,1.254,1.022,1.962
	c0.182,0.35,0.412,0.743,0.566,1.083c0.208,0.402,0.269,0.693,0.37,1.081c0.052,0.368,0.1,0.736,0.032,1.076
	c-0.05,0.339-0.146,0.643-0.271,0.913c-0.099,0.282-0.262,0.517-0.41,0.762c-0.167,0.233-0.36,0.445-0.563,0.638
	c-0.207,0.185-0.413,0.366-0.613,0.507c-0.206,0.135-0.381,0.288-0.542,0.38c-0.32,0.199-0.511,0.347-0.511,0.347l0.032,0.16
	c0,0,0.229,0.043,0.639,0.06c0.207,0.021,0.451-0.024,0.743-0.055c0.283-0.052,0.615-0.132,0.953-0.287
	c0.348-0.148,0.705-0.373,1.04-0.683c0.33-0.313,0.641-0.718,0.814-1.2c0.384-0.969,0.21-2.065-0.098-2.975
	c-0.164-0.427-0.409-0.949-0.646-1.27c-0.262-0.397-0.5-0.695-0.742-1.034c-0.473-0.656-0.937-1.254-1.33-1.771
	C8.368,9.82,7.839,9.136,7.839,9.136L7.701,9.221z"/>
<path fill="#DC3545" d="M11.94,5.328c0,0,0.556,1.035,1.387,2.588c0.421,0.774,0.904,1.681,1.449,2.637
	c0.262,0.476,0.56,0.984,0.814,1.472c0.234,0.463,0.423,0.985,0.54,1.498c0.24,1.04,0.104,2.085-0.255,2.886
	c-0.329,0.818-0.878,1.485-1.489,1.992c-0.602,0.514-1.234,0.849-1.673,1.114c-0.458,0.247-0.72,0.388-0.72,0.388l0.032,0.16
	c0,0,0.307,0.043,0.845,0.008c0.54-0.021,1.326-0.132,2.216-0.558c0.874-0.407,1.885-1.232,2.367-2.476
	c0.224-0.618,0.335-1.291,0.293-1.953c-0.026-0.662-0.163-1.308-0.369-1.918c-0.213-0.611-0.485-1.175-0.832-1.709
	c-0.332-0.477-0.661-0.948-0.978-1.402c-0.63-0.903-1.238-1.731-1.754-2.445c-1.041-1.421-1.736-2.369-1.736-2.369L11.94,5.328z"/>
<path fill="#DC3545" d="M16.195,0.149c0,0,0.781,1.395,1.953,3.486c0.593,1.041,1.286,2.257,2.027,3.558
	c0.367,0.645,0.778,1.325,1.141,1.993c0.338,0.646,0.61,1.363,0.788,2.079c0.358,1.448,0.227,2.938-0.286,4.111
	c-0.478,1.192-1.31,2.13-2.188,2.802c-0.439,0.333-0.877,0.623-1.286,0.846c-0.405,0.235-0.78,0.419-1.092,0.571
	c-0.639,0.291-1.004,0.457-1.004,0.457l0.032,0.161c0,0,0.411,0.025,1.128-0.061c0.718-0.074,1.761-0.266,2.92-0.861
	c1.143-0.573,2.437-1.669,3.065-3.287c0.296-0.802,0.45-1.68,0.41-2.551c-0.021-0.872-0.19-1.73-0.453-2.545
	c-0.271-0.815-0.631-1.575-1.08-2.292c-0.442-0.681-0.881-1.295-1.303-1.921c-0.854-1.231-1.651-2.38-2.335-3.366
	c-1.38-1.961-2.301-3.268-2.301-3.268L16.195,0.149z"/>
</svg>
